HIERARCHY
ROOT Hips
{
	OFFSET	0.00	0.00	0.00
	CHANNELS 6 Xposition Yposition Zposition Zrotation Xrotation Yrotation
	JOINT LeftUpLeg
	{
		OFFSET	 0.126116	-0.014019	-0.065224
		CHANNELS 3 Zrotation Xrotation Yrotation
		JOINT LeftLeg
		{
			OFFSET	 0.000000	 0.000000	 0.569914
			CHANNELS 3 Zrotation Xrotation Yrotation
			JOINT LeftFoot
			{
				OFFSET	 0.000000	 0.000000	 0.544423
				CHANNELS 3 Zrotation Xrotation Yrotation
				JOINT LeftToeBase
				{
					OFFSET	 0.000000	 0.000000	 0.207117
					CHANNELS 3 Zrotation Xrotation Yrotation
					End Site
					{
						OFFSET	 0.000000	 0.000000	 0.207117
					}
				}
			}
		}
	}
	JOINT RightUpLeg
	{
		OFFSET	-0.124023	-0.008373	-0.065224
		CHANNELS 3 Zrotation Xrotation Yrotation
		JOINT RightLeg
		{
			OFFSET	 0.000000	 0.000000	 0.570047
			CHANNELS 3 Zrotation Xrotation Yrotation
			JOINT RightFoot
			{
				OFFSET	 0.000000	 0.000000	 0.544354
				CHANNELS 3 Zrotation Xrotation Yrotation
				JOINT RightToeBase
				{
					OFFSET	 0.000000	 0.000000	 0.207540
					CHANNELS 3 Zrotation Xrotation Yrotation
					End Site
					{
						OFFSET	 0.000000	 0.000000	 0.207540
					}
				}
			}
		}
	}
	JOINT Spine
	{
		OFFSET	 0.000184	-0.007763	 0.117403
		CHANNELS 3 Zrotation Xrotation Yrotation
		JOINT Spine1
		{
			OFFSET	 0.000000	 0.000000	 0.137269
			CHANNELS 3 Zrotation Xrotation Yrotation
			JOINT Spine2
			{
				OFFSET	 0.000000	 0.000000	 0.156879
				CHANNELS 3 Zrotation Xrotation Yrotation
				JOINT LeftShoulder
				{
					OFFSET	 0.080501	-0.002496	 0.160144
					CHANNELS 3 Zrotation Xrotation Yrotation
					JOINT LeftArm
					{
						OFFSET	 0.000000	 0.000000	 0.164363
						CHANNELS 3 Zrotation Xrotation Yrotation
						JOINT LeftForeArm
						{
							OFFSET	 0.000000	 0.000000	 0.364576
							CHANNELS 3 Zrotation Xrotation Yrotation
							JOINT LeftHand
							{
								OFFSET	 0.000000	 0.000000	 0.360812
								CHANNELS 3 Zrotation Xrotation Yrotation
								JOINT LeftHandIndex1
								{
									OFFSET	 0.000000	 0.000000	 0.086006
									CHANNELS 3 Zrotation Xrotation Yrotation
									JOINT LeftHandIndex2
									{
										OFFSET	 0.000000	 0.000000	 0.047236
										CHANNELS 3 Zrotation Xrotation Yrotation
										JOINT LeftHandIndex3
										{
											OFFSET	-0.004284	-0.000551	 0.038166
											CHANNELS 3 Zrotation Xrotation Yrotation
											End Site
											{
												OFFSET	-0.004284	-0.000551	 0.038166
											}
										}
									}
								}
							}
						}
					}
				}
				JOINT Neck
				{
					OFFSET	 0.000000	 0.000000	 0.176489
					CHANNELS 3 Zrotation Xrotation Yrotation
					JOINT Head
					{
						OFFSET	 0.000000	-0.001747	 0.077940
						CHANNELS 3 Zrotation Xrotation Yrotation
						End Site
						{
							OFFSET	 0.000000	-0.001747	 0.077940
						}
					}
				}
				JOINT RightShoulder
				{
					OFFSET	-0.080363	 0.000306	 0.159706
					CHANNELS 3 Zrotation Xrotation Yrotation
					JOINT RightArm
					{
						OFFSET	 0.000000	 0.000000	 0.164196
						CHANNELS 3 Zrotation Xrotation Yrotation
						JOINT RightForeArm
						{
							OFFSET	 0.000000	 0.000000	 0.365611
							CHANNELS 3 Zrotation Xrotation Yrotation
							JOINT RightHand
							{
								OFFSET	 0.000000	 0.000000	 0.360648
								CHANNELS 3 Zrotation Xrotation Yrotation
								JOINT RightHandIndex1
								{
									OFFSET	 0.000000	 0.000000	 0.069977
									CHANNELS 3 Zrotation Xrotation Yrotation
									JOINT RightHandIndex2
									{
										OFFSET	 0.000000	 0.000000	 0.052305
										CHANNELS 3 Zrotation Xrotation Yrotation
										JOINT RightHandIndex3
										{
											OFFSET	 0.009002	-0.000782	 0.042196
											CHANNELS 3 Zrotation Xrotation Yrotation
											End Site
											{
												OFFSET	 0.009002	-0.000782	 0.042196
											}
										}
									}
								}
							}
						}
					}
				}
			}
		}
	}
}
MOTION
Frames:    13
Frame Time: 0.03333334
-0.699177	-9.201147	 1.216394	-8.282829	 17.163310	 3.757535	 3.443518	-34.920620	 175.263800	-1.084270	-43.163410	-0.214199	-0.664271	 80.705720	 0.582046	-2.350759	 34.373540	-0.133896	-0.723024	-36.162790	-179.554700	-3.053400	-43.276080	-0.994595	-1.596361	 80.843150	 0.440234	 2.406795	 19.692760	-0.179195	 0.766182	 15.150510	 1.353456	 0.728151	 1.921392	-1.829259	 0.205269	-3.791142	 0.020322	-125.799900	 89.282360	-141.762100	 53.953570	 65.585350	-61.164210	-10.594770	-1.373772	-21.875280	-0.558139	 11.298200	-5.478004	-5.738554	-12.356030	-1.492271	-5.213516	-0.193813	 3.566525	-1.378229	 35.397820	-2.634230	 0.820388	 0.186795	-3.828879	 0.091395	-6.589509	 1.222991	 93.695760	 85.935280	 172.000700	-62.100250	 74.256270	 71.967800	-2.001584	-15.432380	 31.854560	-26.234540	 10.168290	 9.724342	-10.036230	-10.263780	-39.016930	 5.070815	-0.697434	-9.399699	-2.350882	 35.473990	 5.254307
-0.698785	-9.207648	 1.217012	-8.184715	 17.458880	 3.764806	 3.559633	-34.846900	 175.425300	-1.440468	-43.064350	-0.392822	-0.779877	 80.998070	 0.479127	-2.353240	 34.039700	-0.125992	-0.743799	-36.004570	-179.483300	-2.942808	-42.999160	-0.934133	-1.604839	 81.326420	 0.544178	 2.406613	 19.905580	-0.174979	 0.765627	 15.034950	 1.267626	 0.717005	 1.794347	-1.863583	 0.184353	-3.954767	 0.018513	-125.550400	 89.278550	-142.013500	 55.877090	 66.191820	-61.802090	-10.171340	-1.438768	-21.122000	-0.285447	 11.839960	-5.487701	-5.616752	-12.163890	-1.226240	-5.213516	-0.193813	 3.566525	-1.378229	 35.397820	-2.634230	 0.800000	 0.102622	-3.792930	 0.081423	-6.831824	 1.343991	 93.698340	 85.953060	 172.022500	-60.892180	 75.234350	 70.095360	-2.680156	-14.637640	 28.850260	-27.065900	 10.721830	 9.743056	-9.831017	-9.850680	-38.834750	 5.070815	-0.697434	-9.399699	-2.350882	 35.473990	 5.254307
-0.698407	-9.214839	 1.217345	-8.103882	 17.779710	 3.781018	 3.618869	-34.867870	 175.536600	-1.766055	-43.084200	-0.583757	-0.891876	 81.340180	 0.360535	-2.353757	 33.969940	-0.124343	-0.764675	-35.861560	-179.415600	-2.786742	-42.759070	-0.842986	-1.593134	 81.893970	 0.667615	 2.406197	 20.328500	-0.166576	 0.797999	 14.884210	 1.169685	 0.725434	 1.649524	-1.912373	 0.149437	-4.135807	 0.015241	-124.957800	 89.265380	-142.591300	 57.965350	 66.784380	-62.523780	-9.644356	-1.514828	-20.338330	 0.038461	 12.397450	-5.497843	-5.449057	-11.994680	-0.851101	-5.213516	-0.193813	 3.566525	-1.378229	 35.397820	-2.634230	 0.768944	-0.004253	-3.718318	 0.045538	-7.087225	 1.383386	 93.689610	 85.971530	 172.068200	-58.462840	 76.465050	 66.689800	-3.323730	-13.838640	 25.896590	-28.069210	 11.291980	 9.761639	-9.587218	-9.364742	-38.611890	 5.070815	-0.697434	-9.399699	-2.350882	 35.473990	 5.254307
-0.698229	-9.220956	 1.217441	-8.079560	 18.058300	 3.797490	 3.596856	-34.962520	 175.569000	-1.945743	-43.186550	-0.721942	-0.972150	 81.641870	 0.276099	-2.352136	 34.188710	-0.129522	-0.771004	-35.736760	-179.407300	-2.637867	-42.589090	-0.747141	-1.564398	 82.364270	 0.773789	 2.405695	 20.773980	-0.157701	 0.851378	 14.728940	 1.108740	 0.746899	 1.513455	-1.949221	 0.110810	-4.299090	 0.011458	-124.041700	 89.244370	-143.481600	 59.717510	 67.239590	-63.145450	-9.129765	-1.590623	-19.695500	 0.358476	 12.845340	-5.505712	-5.247414	-11.803970	-0.396408	-5.213516	-0.193813	 3.566525	-1.378229	 35.397820	-2.634230	 0.739638	-0.114122	-3.633132	-0.006413	-7.304518	 1.322836	 93.670480	 85.987460	 172.131000	-55.484640	 77.521090	 62.766840	-3.810345	-13.242350	 23.729450	-28.957900	 11.742760	 9.763001	-9.372138	-8.930596	-38.416220	 5.070815	-0.697434	-9.399699	-2.350882	 35.473990	 5.254307
-0.698098	-9.227036	 1.217479	-8.121944	 18.301230	 3.819406	 3.570452	-34.968630	 175.605800	-2.038289	-43.338980	-0.807423	-1.026406	 81.929440	 0.228451	-2.349059	 34.595830	-0.139196	-0.755306	-35.584720	-179.439100	-2.492913	-42.438750	-0.640930	-1.518266	 82.752320	 0.869634	 2.405224	 21.142660	-0.150329	 0.931009	 14.592710	 1.073968	 0.794867	 1.360076	-1.964015	 0.087874	-4.478647	 0.009223	-122.669200	 89.210680	-144.818500	 61.362600	 67.648870	-63.726860	-8.587243	-1.672589	-19.096150	 0.706002	 13.250810	-5.512542	-4.959074	-11.523610	 0.258671	-5.213516	-0.193813	 3.566525	-1.378229	 35.397820	-2.634230	 0.731304	-0.245629	-3.542137	-0.051303	-7.531464	 1.231277	 93.653520	 86.009780	 172.198300	-51.718120	 78.491860	 58.031490	-4.195276	-12.781930	 22.023580	-29.807050	 12.150410	 9.761501	-9.169972	-8.507874	-38.240030	 5.070815	-0.697434	-9.399699	-2.350882	 35.473990	 5.254307
-0.697963	-9.232987	 1.217518	-8.229864	 18.515030	 3.848254	 3.550549	-34.979910	 175.626500	-2.073878	-43.508500	-0.850672	-1.059163	 82.186230	 0.209034	-2.345111	 35.101050	-0.151312	-0.742660	-35.405740	-179.473600	-2.362706	-42.314100	-0.546297	-1.471580	 83.045060	 0.946888	 2.404906	 21.370400	-0.145767	 1.031026	 14.471760	 1.043720	 0.865780	 1.196350	-1.940010	 0.083940	-4.669716	 0.008949	-120.783200	 89.159540	-146.660900	 62.840880	 68.057200	-64.206460	-8.091423	-1.750492	-18.539980	 1.049577	 13.610970	-5.518321	-4.601087	-11.192120	 1.081352	-5.213516	-0.193813	 3.566525	-1.378229	 35.397820	-2.634230	 0.752736	-0.395404	-3.460804	-0.088572	-7.762655	 1.192665	 93.694690	 86.071250	 172.207000	-47.329380	 79.323030	 52.713840	-4.490563	-12.379130	 20.613100	-30.564490	 12.511820	 9.758095	-8.995392	-8.115960	-38.104930	 5.070815	-0.697434	-9.399699	-2.350882	 35.473990	 5.254307
-0.697860	-9.238348	 1.217647	-8.376142	 18.696530	 3.887496	 3.543662	-34.951080	 175.636300	-2.095781	-43.641830	-0.876258	-1.083337	 82.373860	 0.202623	-2.341440	 35.553060	-0.162250	-0.734165	-35.249250	-179.522300	-2.289151	-42.236030	-0.491587	-1.444948	 83.227610	 0.993042	 2.404753	 21.474190	-0.143690	 1.126717	 14.370000	 0.999088	 0.940248	 1.056395	-1.887378	 0.094865	-4.832387	 0.010248	-118.572500	 89.096040	-148.841600	 63.998310	 68.451400	-64.511890	-7.753344	-1.802714	-18.074930	 1.307465	 13.892470	-5.522849	-4.308242	-10.898640	 1.760937	-5.213516	-0.193813	 3.566525	-1.378229	 35.397820	-2.634230	 0.788900	-0.495750	-3.383247	-0.110881	-7.986428	 1.217619	 93.786460	 86.161250	 172.159200	-43.007110	 79.927330	 47.604350	-4.656429	-12.041280	 19.560570	-31.113570	 12.794340	 9.754320	-8.873254	-7.812500	-38.030190	 5.070815	-0.697434	-9.399699	-2.350882	 35.473990	 5.254307
-0.697714	-9.243210	 1.217916	-8.537892	 18.873200	 3.933508	 3.552764	-34.885040	 175.664900	-2.148280	-43.710500	-0.912168	-1.112017	 82.490070	 0.190316	-2.338173	 35.942540	-0.171752	-0.729413	-35.281330	-179.585600	-2.320012	-42.186220	-0.509583	-1.464319	 83.323830	 0.998537	 2.404660	 21.536630	-0.142431	 1.200832	 14.269940	 0.927306	 1.004484	 0.942771	-1.811601	 0.118679	-4.963961	 0.012955	-116.036300	 89.014640	-151.369000	 64.930830	 68.839970	-64.682420	-7.554715	-1.827476	-17.671550	 1.470935	 14.112190	-5.526623	-4.122275	-10.683700	 2.195724	-5.213516	-0.193813	 3.566525	-1.378229	 35.397820	-2.634230	 0.832602	-0.535651	-3.289368	-0.116468	-8.207729	 1.277185	 93.919180	 86.271750	 172.066400	-38.776770	 80.355350	 42.659480	-4.686714	-11.733710	 18.766780	-31.444540	 13.015290	 9.750504	-8.784040	-7.616700	-37.956870	 5.070815	-0.697434	-9.399699	-2.350882	 35.473990	 5.254307
-0.697455	-9.248098	 1.218475	-8.718239	 19.069570	 3.958120	 3.567632	-34.822280	 175.704400	-2.246114	-43.686410	-0.972191	-1.149431	 82.520100	 0.160262	-2.334893	 36.322290	-0.181099	-0.757029	-35.309370	-179.547800	-2.406289	-42.152600	-0.584414	-1.522551	 83.351820	 0.975065	 2.404613	 21.567980	-0.141798	 1.256234	 14.151450	 0.859692	 1.060716	 0.845050	-1.713836	 0.160259	-5.076587	 0.017650	-113.165700	 88.904250	-154.247200	 65.733770	 69.208740	-64.820380	-7.461294	-1.831546	-17.310120	 1.559084	 14.274520	-5.529556	-4.013629	-10.592920	 2.451534	-5.213516	-0.193813	 3.566525	-1.378229	 35.397820	-2.634230	 0.876002	-0.563559	-3.158751	-0.092765	-8.401314	 1.363453	 94.104480	 86.398700	 171.905900	-34.787810	 80.626780	 37.991620	-4.706533	-11.475010	 18.154100	-31.667710	 13.179850	 9.745906	-8.731961	-7.557119	-37.874960	 5.070815	-0.697434	-9.399699	-2.350882	 35.473990	 5.254307
-0.697291	-9.252368	 1.219287	-8.879354	 19.252520	 3.945202	 3.574832	-34.793900	 175.738600	-2.357758	-43.627590	-1.043723	-1.186011	 82.476580	 0.118866	-2.331979	 36.652430	-0.189272	-0.791092	-35.360450	-179.488700	-2.496402	-42.127720	-0.665687	-1.586671	 83.376080	 0.949841	 2.404595	 21.581720	-0.141524	 1.288345	 14.050470	 0.820416	 1.100124	 0.771919	-1.613297	 0.202271	-5.160238	 0.022423	-110.920400	 88.799100	-156.507300	 66.368770	 69.490810	-64.982860	-7.366285	-1.844906	-16.997340	 1.665681	 14.359000	-5.530384	-3.953830	-10.683610	 2.593478	-5.213516	-0.193813	 3.566525	-1.378229	 35.397820	-2.634230	 0.909500	-0.624021	-3.023801	-0.062708	-8.503783	 1.463852	 94.314670	 86.517880	 171.698200	-31.572320	 80.757410	 34.204540	-4.810504	-11.321820	 17.736980	-31.879940	 13.267980	 9.740670	-8.703752	-7.579772	-37.791590	 5.070815	-0.697434	-9.399699	-2.350882	 35.473990	 5.254307
-0.697186	-9.256399	 1.220160	-9.053637	 19.438810	 3.920515	 3.576259	-34.788390	 175.763500	-2.488740	-43.545820	-1.130064	-1.225028	 82.388640	 0.064552	-2.329166	 36.961640	-0.196987	-0.831548	-35.463760	-179.404400	-2.585646	-42.097030	-0.750837	-1.655349	 83.398240	 0.924601	 2.404544	 21.610310	-0.140950	 1.316279	 13.957230	 0.811285	 1.138928	 0.714268	-1.518450	 0.251711	-5.224511	 0.028044	-109.356100	 88.712140	-158.086200	 66.897350	 69.711550	-65.165300	-7.112266	-1.908664	-16.689790	 1.941742	 14.371610	-5.527806	-3.890413	-10.834910	 2.743711	-5.213516	-0.193813	 3.566525	-1.378229	 35.397820	-2.634230	 0.939433	-0.711191	-2.883468	-0.018312	-8.539944	 1.580959	 94.536640	 86.628850	 171.468700	-28.772630	 80.811110	 30.892980	-4.944326	-11.238530	 17.451660	-32.075630	 13.286570	 9.734112	-8.673185	-7.609570	-37.697570	 5.070815	-0.697434	-9.399699	-2.350882	 35.473990	 5.254307
-0.697242	-9.259836	 1.220905	-9.197042	 19.579580	 3.900849	 3.574122	-34.783430	 175.773300	-2.590221	-43.464050	-1.197561	-1.255236	 82.303670	 0.020974	-2.326996	 37.197300	-0.202894	-0.857758	-35.381160	-179.350600	-2.680203	-42.057410	-0.829795	-1.720401	 83.404770	 0.901627	 2.404511	 21.630840	-0.140539	 1.335219	 13.881700	 0.818043	 1.166860	 0.677999	-1.452254	 0.291090	-5.263332	 0.032529	-108.433300	 88.655940	-159.025000	 67.216220	 69.860760	-65.288570	-6.794153	-1.998823	-16.460130	 2.297184	 14.320630	-5.522843	-3.845585	-10.915070	 2.849384	-5.213516	-0.193813	 3.566525	-1.378229	 35.397820	-2.634230	 0.963086	-0.771403	-2.769848	 0.016470	-8.553246	 1.661625	 94.697570	 86.704440	 171.301800	-26.856470	 80.808280	 28.607280	-5.058363	-11.212490	 17.309880	-32.203190	 13.241980	 9.727852	-8.646838	-7.638959	-37.613960	 5.070815	-0.697434	-9.399699	-2.350882	 35.473990	 5.254307
-0.697370	-9.263702	 1.221696	-9.343080	 19.708270	 3.884903	 3.574615	-34.615350	 175.781300	-2.670573	-43.360450	-1.250930	-1.281366	 82.221890	-0.013619	-2.324732	 37.437550	-0.208959	-0.848358	-35.347760	-179.261200	-2.813440	-41.985210	-0.916038	-1.789739	 83.386720	 0.872919	 2.404521	 21.625630	-0.140642	 1.353207	 13.789460	 0.829024	 1.195242	 0.644324	-1.391749	 0.332107	-5.297611	 0.037211	-107.685300	 88.610270	-159.801200	 67.447690	 69.982480	-65.387520	-6.444047	-2.100369	-16.256690	 2.688010	 14.190870	-5.515383	-3.897044	-10.983170	 2.728602	-5.213516	-0.193813	 3.566525	-1.378229	 35.397820	-2.634230	 0.990260	-0.801528	-2.651842	 0.051265	-8.588004	 1.708243	 94.816140	 86.763110	 171.187300	-25.077690	 80.764220	 26.455390	-5.165739	-11.214440	 17.240830	-32.284290	 13.119300	 9.720400	-8.616683	-7.676479	-37.515620	 5.070815	-0.697434	-9.399699	-2.350882	 35.473990	 5.254307
